<?xml version="1.0" ?><svg viewBox="0 0 512 512" xmlns="http://www.w3.org/2000/svg"><title/><g data-name="1" id="_1"><path d="M395.49,450H125.8a15,15,0,0,1-15-15V197a15,15,0,0,1,30,0V420H380.49V197a15,15,0,1,1,30,0V435A15,15,0,0,1,395.49,450Z"/><path d="M445.11,261.65a15,15,0,0,1-10.61-4.39L260.64,83.4,86.78,257.26a15,15,0,0,1-21.21-21.21L250,51.58a15,15,0,0,1,21.21,0L455.72,236.05a15,15,0,0,1-10.61,25.6Z"/><path d="M304.15,450h-87a15,15,0,0,1-15-15V305.48a15,15,0,0,1,15-15h87a15,15,0,0,1,15,15V435A15,15,0,0,1,304.15,450Zm-72-30h57V320.48h-57Z"/></g></svg>